<?xml version="1.0" standalone="no"?><!DOCTYPE svg PUBLIC "-//W3C//DTD SVG 1.1//EN" "http://www.w3.org/Graphics/SVG/1.1/DTD/svg11.dtd"><svg t="1606731729345" class="icon" viewBox="0 0 1024 1024" version="1.1" xmlns="http://www.w3.org/2000/svg" p-="15948" xmlns:xlink="http://www.w3.org/1999/xlink" wth="200" height="200"><defs><style type="text/css"></style></defs><path fill="#cccccc" d="M986.453 264.875L565.248 35.499c-32.768-18.432-82.603-18.432-115.37 0L36.18 264.875C12.971 277.845 0 297.643 0 320.853c0 23.894 13.653 44.374 37.547 57.344l421.205 229.376c17.067 8.875 36.864 13.654 57.344 13.654s40.96-4.779 58.027-14.336l413.696-229.376c23.21-12.971 36.181-33.451 36.181-55.979 0-23.21-13.653-44.373-37.547-56.661z m-60.757 57.344L537.259 536.576c-10.24 4.779-30.72 4.779-40.96 0l-395.947-215.04 387.755-215.04c10.24-4.779 30.72-5.461 40.96 0l396.629 215.723zM25.259 510.635c10.24-20.48 33.45-27.99 53.93-18.432L496.3 725.675c9.557 4.778 30.037 4.778 39.594 0l408.235-232.79c19.115-10.922 43.008-4.096 53.93 15.702 10.24 19.797 3.414 43.69-15.018 55.296L574.123 797.355c-17.067 10.24-36.864 15.018-58.71 15.018-20.48 0-40.96-4.778-57.344-14.336L41.643 565.248C23.21 554.325 15.7 531.115 25.259 510.635z m972.8 188.416c10.24 18.432 3.413 43.69-15.019 55.296L574.123 987.819c-17.067 10.24-36.864 15.018-58.71 15.018-21.162 0-40.96-4.778-57.344-14.336L41.643 755.712c-18.432-10.24-25.942-34.133-17.067-54.613 10.24-20.48 33.45-27.99 53.93-18.432l417.11 233.472c9.557 4.778 30.037 4.778 39.595 0l408.234-232.79c19.798-10.922 43.691-4.096 54.614 15.702z" p-="15949"></path></svg>