<?xml version="1.0" standalone="no"?><!DOCTYPE svg PUBLIC "-//W3C//DTD SVG 1.1//EN" "http://www.w3.org/Graphics/SVG/1.1/DTD/svg11.dtd"><svg t="1657349248006" class="icon" viewBox="0 0 1024 1024" version="1.1" xmlns="http://www.w3.org/2000/svg" p-id="8685" xmlns:xlink="http://www.w3.org/1999/xlink" width="200" height="200"><defs><style type="text/css"></style></defs><path d="M475.757382 905.154123a410.188855 410.188855 0 1 1 311.01821-677.650495 37.387614 37.387614 0 1 1-56.688969 48.790836 335.366893 335.366893 0 1 0 16.544019 416.498015 37.387614 37.387614 0 1 1 60.334261 44.117384 411.777828 411.777828 0 0 1-331.207521 168.24426z" p-id="8686" fill="#FFFFFF"></path><path d="M541.138971 683.632513a37.387614 37.387614 0 0 1-28.648259-13.366071L424.583086 565.487655a37.387614 37.387614 0 0 1-8.645886-24.115011l1.02816-222.97038a37.387614 37.387614 0 0 1 37.387613-37.387614 37.387614 37.387614 0 0 1 37.387614 37.387614L490.712428 528.100041l79.121537 94.170052a37.387614 37.387614 0 0 1-28.648259 61.455889zM895.059468 446.267902h-252.693533a37.387614 37.387614 0 0 1 0-74.775227h252.693533a37.387614 37.387614 0 0 1 0 74.775227zM813.180594 613.577473h-161.981835a37.387614 37.387614 0 0 1 0-74.775228H813.180594a37.387614 37.387614 0 1 1 0 74.775228z" p-id="8687" fill="#FFFFFF"></path></svg>