<?xml version="1.0" standalone="no"?><!DOCTYPE svg PUBLIC "-//W3C//DTD SVG 1.1//EN" "http://www.w3.org/Graphics/SVG/1.1/DTD/svg11.dtd"><svg t="1657349222139" class="icon" viewBox="0 0 1024 1024" version="1.1" xmlns="http://www.w3.org/2000/svg" p-id="7701" xmlns:xlink="http://www.w3.org/1999/xlink" width="200" height="200"><defs><style type="text/css"></style></defs><path d="M878.19 677.88h-31.91V533.44a65.08 65.08 0 0 0-65-65H520.11V349h35a65.08 65.08 0 0 0 65-65V164a65.08 65.08 0 0 0-65-65h-120a65.07 65.07 0 0 0-65 65v120a65.07 65.07 0 0 0 65 65h35v119.44H212.28a65.08 65.08 0 0 0-65 65v144.44h-35a65.08 65.08 0 0 0-65 65v120a65.08 65.08 0 0 0 65 65h120a65.08 65.08 0 0 0 65-65v-120a65.08 65.08 0 0 0-65-65h-35a1.77 1.77 0 0 0 0-0.23V533.44a15 15 0 0 1 15-15h569a15 15 0 0 1 15 15v144.44h-38.09a65.08 65.08 0 0 0-65 65v120a65.08 65.08 0 0 0 65 65h120a65.08 65.08 0 0 0 65-65v-120a65.08 65.08 0 0 0-65-65zM420.11 284V164a15.2 15.2 0 0 1 15-15h120a15.2 15.2 0 0 1 15 15v120a15.2 15.2 0 0 1-15 15h-120a15.2 15.2 0 0 1-15-15zM247.28 742.88v120a15.2 15.2 0 0 1-15 15h-120a15.2 15.2 0 0 1-15-15v-120a15.2 15.2 0 0 1 15-15h120a15.2 15.2 0 0 1 15 15z m645.91 120a15.2 15.2 0 0 1-15 15h-120a15.2 15.2 0 0 1-15-15v-120a15.2 15.2 0 0 1 15-15h120a15.2 15.2 0 0 1 15 15z" p-id="7702" fill="#FFFFFF"></path></svg>