<?xml version="1.0" standalone="no"?><!DOCTYPE svg PUBLIC "-//W3C//DTD SVG 1.1//EN" "http://www.w3.org/Graphics/SVG/1.1/DTD/svg11.dtd"><svg t="1657182019189" class="icon" viewBox="0 0 1024 1024" version="1.1" xmlns="http://www.w3.org/2000/svg" p-id="5066" xmlns:xlink="http://www.w3.org/1999/xlink" width="200" height="200"><defs><style type="text/css"></style></defs><path d="M828.5 641.5c-17.4-3.9-35 5.9-40.7 22.8C747.9 781.2 635.7 863.2 510 863.2c-161.7 0-293.3-131.6-293.3-293.3 0-161.7 131.6-293.3 293.3-293.3 18.3 0 36.5 1.7 54.3 5 17.6 3.3 34.8-7.2 40-24.3 6-20-6.7-40.7-27.2-44.5-10.5-2-21.1-3.4-31.7-4.5v-42.7H583c19.3 0 35-15.7 35-35s-15.7-35-35-35H442.5c-19.3 0-35 15.7-35 35s15.7 35 35 35h33v42.6c-36.8 3.5-72.6 12.5-106.8 26.9-43.3 18.3-82.1 44.5-115.5 77.8-33.4 33.3-59.5 72.2-77.8 115.5-19 44.8-28.6 92.4-28.6 141.4s9.6 96.6 28.6 141.4c18.3 43.3 44.5 82.1 77.8 115.5 33.4 33.3 72.2 59.5 115.5 77.8 44.8 19 92.4 28.6 141.4 28.6 42.4 0 83.9-7.2 123.4-21.5 38.2-13.8 73.6-33.8 105.3-59.5C792 809 832.1 751.2 854 686.8c6.7-19.7-5.2-40.8-25.5-45.3z" p-id="5067" fill="#39C449"></path><path d="M540.8 478V365.6c0-19.3-15.7-35-35-35s-35 15.7-35 35v115.7c-33.9 15.1-57.7 49.1-57.7 88.6 0 53.5 43.5 96.9 96.9 96.9 40.4 0 75.1-24.8 89.6-60h148.3c19.3 0 35-15.7 35-35s-15.7-35-35-35H601.1c-10-27.6-32.4-49.4-60.3-58.8zM510 596.9c-14.9 0-26.9-12.1-26.9-26.9s12.1-27 26.9-27 26.9 12.1 26.9 26.9-12 27-26.9 27z" p-id="5068" fill="#39C449"></path><path d="M686.9 294.3m-35.6 0a35.6 35.6 0 1 0 71.2 0 35.6 35.6 0 1 0-71.2 0Z" p-id="5069" fill="#39C449"></path><path d="M789.1 398m-35.6 0a35.6 35.6 0 1 0 71.2 0 35.6 35.6 0 1 0-71.2 0Z" p-id="5070" fill="#39C449"></path><path d="M838.7 546.6m-35.6 0a35.6 35.6 0 1 0 71.2 0 35.6 35.6 0 1 0-71.2 0Z" p-id="5071" fill="#39C449"></path></svg>