<?xml version="1.0" standalone="no"?><!DOCTYPE svg PUBLIC "-//W3C//DTD SVG 1.1//EN" "http://www.w3.org/Graphics/SVG/1.1/DTD/svg11.dtd"><svg t="1657159745757" class="icon" viewBox="0 0 1100 1024" version="1.1" xmlns="http://www.w3.org/2000/svg" p-id="3394" xmlns:xlink="http://www.w3.org/1999/xlink" width="214.84375" height="200"><defs><style type="text/css"></style></defs><path d="M917.733845 1023.985408H183.034784a180.782048 180.782048 0 0 1-183.009185-178.170922V178.185514A180.782048 180.782048 0 0 1 183.034784 0.014592h734.699061A180.807647 180.807647 0 0 1 1100.768628 178.185514v667.628972A180.807647 180.807647 0 0 1 917.733845 1023.985408zM183.034784 71.180563a108.617704 108.617704 0 0 0-109.795271 107.004951v667.628972a108.41291 108.41291 0 0 0 109.795271 106.748958h734.699061a108.41291 108.41291 0 0 0 109.82087-106.748958V178.185514a108.643304 108.643304 0 0 0-109.82087-107.004951H183.034784z m881.152487 255.480719H36.606957a35.608585 35.608585 0 1 1 0-71.165972h1027.554714a35.608585 35.608585 0 1 1 0 71.165972z m-606.702709 517.873241a36.14617 36.14617 0 0 1-25.880863-10.495701l-165.294489-160.763418a35.019802 35.019802 0 0 1 0-50.430563 36.990946 36.990946 0 0 1 51.761725 0l165.294489 161.019411a34.687011 34.687011 0 0 1 0 50.17457 36.14617 36.14617 0 0 1-25.880862 10.495701z m0 0a36.14617 36.14617 0 0 1-25.880863-10.495701 34.73821 34.73821 0 0 1 0-50.17457l350.965998-341.75026a36.990946 36.990946 0 0 1 51.761725 0 34.73821 34.73821 0 0 1 0 50.17457l-350.965998 341.75026a36.14617 36.14617 0 0 1-25.855263 10.495701z" p-id="3395" fill="#39C449"></path></svg>