<?xml version="1.0" standalone="no"?><!DOCTYPE svg PUBLIC "-//W3C//DTD SVG 1.1//EN" "http://www.w3.org/Graphics/SVG/1.1/DTD/svg11.dtd"><svg t="1657348450683" class="icon" viewBox="0 0 1024 1024" version="1.1" xmlns="http://www.w3.org/2000/svg" p-id="6220" xmlns:xlink="http://www.w3.org/1999/xlink" width="200" height="200"><defs><style type="text/css"></style></defs><path d="M583.798331 311.828369V110.483649l199.638409 201.771298z m290.926057-10.237867L597.022243 21.32889a77.210581 77.210581 0 0 0-14.930223-11.517601l-4.265778-2.132889h-2.986045A72.518225 72.518225 0 0 0 545.832907 0H199.878314A72.091648 72.091648 0 0 0 127.786667 72.091648v879.603416A72.091648 72.091648 0 0 0 199.878314 1023.786711h213.288898a35.832535 35.832535 0 1 0 0-72.091647h-213.288898V72.091648H511.706683v239.736721A72.091648 72.091648 0 0 0 583.798331 383.920017h240.163299v156.127473a35.832535 35.832535 0 1 0 72.091648 0v-187.69423a72.091648 72.091648 0 0 0-21.32889-50.762758zM859.794165 767.840033H703.666692v-156.127473a35.832535 35.832535 0 1 0-72.091648 0V767.840033H483.552549a35.832535 35.832535 0 1 0 0 72.091648h148.022495v148.022495a35.832535 35.832535 0 1 0 72.091648 0v-148.022495h156.127473a35.832535 35.832535 0 1 0 0-72.091648z" fill="#6E7E88" p-id="6221"></path></svg>